<?xml version="1.0" standalone="no"?>
<!DOCTYPE svg PUBLIC "-//W3C//DTD SVG 20010904//EN"
 "http://www.w3.org/TR/2001/REC-SVG-20010904/DTD/svg10.dtd">
<svg version="1.0" xmlns="http://www.w3.org/2000/svg"
 width="700.000000pt" height="700.000000pt" viewBox="0 0 700.000000 700.000000"
 preserveAspectRatio="xMidYMid meet">
<metadata>
Created by potrace 1.11, written by Peter Selinger 2001-2013
</metadata>
<g transform="translate(0.000000,700.000000) scale(0.100000,-0.100000)"
fill="#000000" stroke="none">
<path d="M3360 6854 c-676 -37 -1279 -244 -1809 -623 -368 -262 -705 -629
-933 -1013 -78 -132 -189 -358 -241 -493 -44 -114 -101 -294 -95 -300 3 -3
815 -2 1805 2 l1800 6 6 306 c4 168 7 485 7 704 0 274 3 405 11 420 19 38 51
57 97 57 35 0 49 -6 73 -29 l29 -29 0 -716 0 -716 665 0 665 0 0 243 c0 133 3
456 7 717 l6 475 28 27 c21 22 37 28 69 28 52 0 76 -13 95 -50 13 -25 15 -125
15 -740 l0 -710 530 0 c353 0 530 3 530 10 0 22 -73 236 -120 349 -173 420
-408 770 -739 1101 -496 495 -1113 813 -1806 929 -205 34 -516 54 -695 45z"/>
<path d="M6750 4220 c-9 -6 -233 -10 -552 -10 l-538 0 0 -355 0 -355 597 0
596 0 -7 148 c-9 210 -54 552 -75 574 -3 4 -13 3 -21 -2z"/>
<path d="M568 4203 l-346 -3 -10 -48 c-30 -139 -62 -441 -62 -583 l0 -69 1608
0 1609 0 6 188 c4 103 7 262 7 355 l0 167 -1232 -2 c-678 -2 -1389 -4 -1580
-5z"/>
<path d="M3600 3855 l0 -355 145 0 145 0 0 355 0 355 -145 0 -145 0 0 -355z"/>
<path d="M4110 3855 l0 -355 659 0 660 0 3 103 c2 56 5 216 6 355 l3 252 -666
0 -665 0 0 -355z"/>
</g>
</svg>
